<svg width="39" height="52" viewBox="0 0 39 52" fill="none" xmlns="http://www.w3.org/2000/svg">
<path d="M30.0469 11.3438C30.0469 5.5282 25.3155 0.796875 19.5 0.796875C13.6845 0.796875 8.95312 5.5282 8.95312 11.3438C8.95312 17.1593 13.6845 21.8906 19.5 21.8906C25.3155 21.8906 30.0469 17.1593 30.0469 11.3438ZM19.5 21.8906C9.03201 21.8906 0.515625 30.407 0.515625 40.875V42.8519C0.515625 43.4515 0.770718 44.0228 1.21734 44.4228C6.3555 49.0269 12.8484 51.5625 19.5 51.5625C26.1517 51.5625 32.6446 49.0269 37.7827 44.4228C38.2293 44.0228 38.4844 43.4514 38.4844 42.8519V40.875C38.4844 30.407 29.968 21.8906 19.5 21.8906Z" fill="#DADBDC"/>
</svg>
