<svg width="175" height="40" viewBox="0 0 175 40" fill="none" xmlns="http://www.w3.org/2000/svg">
<path fill-rule="evenodd" clip-rule="evenodd" d="M26.3714 23.9375L31.0669 15.7324H21.7744L26.3714 23.9375Z" fill="#1032A0"/>
<path fill-rule="evenodd" clip-rule="evenodd" d="M20.0013 33.3336C20.658 33.3336 21.2491 32.9696 21.5774 32.4072L22.6282 30.5544L14.5834 16.2285H9.16553L18.4252 32.4072C18.7536 33.0027 19.3446 33.3336 20.0013 33.3336Z" fill="#1032A0"/>
<path fill-rule="evenodd" clip-rule="evenodd" d="M5.12665 9.18147H34.8758C35.0728 8.68519 35.04 8.08966 34.7445 7.59338C34.4161 7.03093 33.8251 6.66699 33.1684 6.66699H6.80128C6.14456 6.66699 5.55352 7.03093 5.22516 7.59338C4.96247 8.08966 4.92964 8.65211 5.12665 9.18147Z" fill="#1032A0"/>
<path fill-rule="evenodd" clip-rule="evenodd" d="M23.6789 28.7348L23.9416 28.2716C24.4342 27.4114 24.4342 27.4114 25.1894 26.0879L25.6162 25.327L19.6073 14.6405L19.476 14.4089H31.855C32.8073 12.7877 32.8401 12.7215 32.8729 12.6554C32.9058 12.5892 32.9386 12.523 33.7923 11.0342H6.11182C6.93271 12.4899 6.99838 12.5561 7.03122 12.6554C7.06405 12.7215 7.12973 12.8208 8.04913 14.442H15.6013L15.6342 14.5081L23.6789 28.7348Z" fill="#1032A0"/>
<path d="M49.5674 27V15.4694H45V13H56.8712V15.4694H52.3038V27H49.5674Z" fill="#1032A0"/>
<path d="M58.4879 27V13H61.2243V18.7556H67.7032V13H70.4396V27H67.7032V21.225H61.2243V27H58.4879Z" fill="#1032A0"/>
<path d="M73.2641 27V13H82.7208V15.4694H76.0005V18.4639H81.5135V20.9333H76.0005V24.5306H82.7208V27H73.2641Z" fill="#1032A0"/>
<path d="M85.1321 27V13H91.2488C91.3896 13 91.5774 13.0065 91.8122 13.0194C92.0536 13.0259 92.2682 13.0454 92.456 13.0778C93.3212 13.2074 94.0288 13.4829 94.5788 13.9042C95.1354 14.3255 95.5446 14.8569 95.8061 15.4986C96.0677 16.1338 96.1985 16.8435 96.1985 17.6278C96.1985 18.8009 95.8967 19.8056 95.2931 20.6417C94.6894 21.4713 93.7438 21.9833 92.456 22.1778L91.2488 22.2556H87.8685V27H85.1321ZM93.3011 27L91.1281 22.2556L92.4715 22.1754L93.5915 21.892L96.3997 27H93.3011ZM87.8685 19.7861H91.1281C91.2689 19.7861 91.4232 19.7796 91.5909 19.7667C91.7585 19.7537 91.9128 19.7278 92.0536 19.6889C92.4225 19.5917 92.7076 19.4296 92.9088 19.2028C93.11 18.9694 93.2475 18.7134 93.3212 18.4347C93.4017 18.1495 93.442 17.8806 93.442 17.6278C93.442 17.375 93.4017 17.1093 93.3212 16.8306C93.2475 16.5454 93.11 16.2894 92.9088 16.0625C92.7076 15.8292 92.4225 15.6639 92.0536 15.5667C91.9128 15.5278 91.7585 15.5019 91.5909 15.4889C91.4232 15.4759 91.2689 15.4694 91.1281 15.4694H87.8685V19.7861Z" fill="#1032A0"/>
<path d="M98.6114 27V13H107.464V15.6444H101.348V18.6778H106.257V21.3222H101.348V27H98.6114Z" fill="#1032A0"/>
<path d="M109.281 27V13H118.738V15.4694H112.017V18.4639H117.53V20.9333H112.017V24.5306H118.738V27H109.281Z" fill="#1032A0"/>
<path d="M121.149 27V13H123.926L130.223 22.3333V13H133V27H130.223L123.926 17.6667V27H121.149Z" fill="#1032A0"/>
</svg>
