<svg width="258" height="172" viewBox="0 0 258 172" fill="none" xmlns="http://www.w3.org/2000/svg">
<path d="M219.347 37.0826C207.846 31.1701 194.374 26.5815 179.7 23.5786C165.025 20.5757 149.436 19.2173 133.822 19.5812C118.209 19.945 102.876 22.0239 88.7001 25.699C74.524 29.3742 61.7821 34.5737 51.2019 41.0007L53.5088 42.1867C63.8103 35.9289 76.2165 30.8664 90.0192 27.288C103.822 23.7096 118.751 21.6855 133.953 21.3313C149.156 20.977 164.334 22.2996 178.622 25.2234C192.91 28.1472 206.027 32.615 217.225 38.3717L219.347 37.0826Z" fill="#FFCB77"/>
<path d="M216.835 52.2108C206.527 44.4121 194.045 37.5612 180.102 32.049C166.159 26.5368 151.027 22.4714 135.572 20.0849C120.116 17.6984 104.639 17.0375 90.0246 18.1399C75.4099 19.2423 61.9435 22.0865 50.3944 26.5101L52.462 28.0744C63.7069 23.7673 76.8186 20.998 91.0484 19.9246C105.278 18.8512 120.347 19.4947 135.396 21.8184C150.444 24.142 165.177 28.1004 178.753 33.4673C192.329 38.8343 204.482 45.5048 214.519 53.0981L216.835 52.2108Z" fill="#FFCB77"/>
</svg>
