<svg width="16" height="16" viewBox="0 0 16 16" fill="none" xmlns="http://www.w3.org/2000/svg">
<path d="M6.39062 14.3627V15.9832L5.99878 15.6666C5.93823 15.6177 4.49768 14.4481 3.03687 12.771C1.02173 10.4574 0 8.38062 0 6.59851V6.42188C0 2.89807 2.86682 0.03125 6.39062 0.03125C9.91443 0.03125 12.7812 2.89807 12.7812 6.42188V6.59851C12.7812 6.74817 12.7733 6.90015 12.7589 7.05396L11.5092 5.91382C11.2532 3.31519 9.05542 1.2782 6.39062 1.2782C3.55444 1.2782 1.24695 3.58569 1.24695 6.42188V6.59851C1.24695 9.60999 5.12708 13.2556 6.39062 14.3627ZM10.225 13.467H12.0953V11.5967H10.225V13.467ZM6.39062 3.77209C7.85168 3.77209 9.04041 4.96082 9.04041 6.42188C9.04041 7.88293 7.85168 9.07166 6.39062 9.07166C4.92957 9.07166 3.74084 7.88293 3.74084 6.42188C3.74084 4.96082 4.92957 3.77209 6.39062 3.77209ZM6.39062 5.01904C5.61707 5.01904 4.98779 5.64832 4.98779 6.42188C4.98779 7.19531 5.61707 7.82471 6.39062 7.82471C7.16406 7.82471 7.79346 7.19531 7.79346 6.42188C7.79346 5.64832 7.16406 5.01904 6.39062 5.01904ZM15.1597 12.6198L14.8091 12.2999V14.3018C14.8091 15.2339 14.0507 15.9922 13.1185 15.9922H9.17065C8.23853 15.9922 7.4801 15.2339 7.4801 14.3018V12.2999L7.12952 12.6198L6.28918 11.6986L11.1445 7.26904L16 11.6986L15.1597 12.6198ZM13.5621 11.1624L11.1445 8.95691L8.72705 11.1624V14.3016C8.72705 14.5463 8.92603 14.7452 9.17065 14.7452H13.1185C13.3632 14.7452 13.5621 14.5463 13.5621 14.3016V11.1624Z" fill="black"/>
</svg>
