<svg width="16" height="16" viewBox="0 0 16 16" fill="none" xmlns="http://www.w3.org/2000/svg">
<path d="M10.8076 8.98438C10.4155 8.75232 9.73049 8.18481 9.09218 8.79224C8.94155 8.94556 8.84181 9.04822 8.77736 9.11414C8.19753 8.83948 7.16652 7.84399 6.89919 7.21582C7.84645 6.35474 7.40798 6.04761 6.47634 4.2782C6.31716 4.00354 6.0591 3.82129 5.74416 3.82129C5.35842 3.82129 5.20766 4.01135 4.65663 4.56897C3.96669 5.26697 3.56178 5.48621 3.82131 6.66895C4.55983 10.0356 9.48842 13.4075 10.8842 11.9001C12.0242 10.7678 12.244 10.6605 12.1773 10.1484C12.0932 9.63855 11.7019 9.51355 10.8076 8.98438ZM10.1972 11.2622C10.1174 11.3507 9.64015 11.3799 8.84841 11.0513C7.34706 10.4282 5.78969 8.79321 5.15151 7.57263C4.94826 7.18384 4.4988 6.03101 4.74831 5.80615C4.85036 5.70935 5.53652 5.00867 5.71205 4.83887C6.17934 5.72461 6.40688 6.13867 6.48244 6.30737C6.34804 6.51489 5.91823 6.67737 5.91823 7.1864C6.10732 8.18091 7.40114 9.39966 8.17446 9.85315C8.96376 10.316 9.21633 10.0066 9.5038 9.71191C9.76051 9.44897 9.73854 9.46497 9.76528 9.46228L11.1773 10.2921C11.0117 10.4652 10.3114 11.1421 10.1972 11.2622Z" fill="black"/>
<path d="M8 0C3.578 0 0 3.57861 0 8C0 12.422 3.57861 16 8 16C12.422 16 16 12.4214 16 8C16 3.578 12.4214 0 8 0ZM8 15.0625C4.09619 15.0625 0.9375 11.9032 0.9375 8C0.9375 4.09619 4.0968 0.9375 8 0.9375C11.9038 0.9375 15.0625 4.0968 15.0625 8C15.0625 11.9038 11.9032 15.0625 8 15.0625Z" fill="black"/>
</svg>
