<svg width="16" height="17" viewBox="0 0 16 17" fill="none" xmlns="http://www.w3.org/2000/svg">
<g clip-path="url(#clip0_1007_1622)">
<path d="M13.6569 2.84314C12.1459 1.33215 10.1368 0.5 8 0.5C5.86304 0.5 3.85413 1.33215 2.34314 2.84314C0.832153 4.35413 0 6.36304 0 8.5C0 10.6368 0.832153 12.6459 2.34314 14.1569C3.85413 15.6678 5.86304 16.5 8 16.5C10.1368 16.5 12.1459 15.6678 13.6569 14.1569C15.1678 12.6459 16 10.6368 16 8.5C16 6.36304 15.1678 4.35413 13.6569 2.84314ZM4.01062 14.3246C4.34521 12.3981 6.01465 10.9771 8 10.9771C9.98547 10.9771 11.6548 12.3981 11.9894 14.3246C10.8535 15.105 9.47925 15.5625 8 15.5625C6.52075 15.5625 5.14648 15.105 4.01062 14.3246ZM5.4563 7.49585C5.4563 6.09314 6.59741 4.95215 8 4.95215C9.40259 4.95215 10.5437 6.09326 10.5437 7.49585C10.5437 8.89844 9.40259 10.0396 8 10.0396C6.59741 10.0396 5.4563 8.89844 5.4563 7.49585ZM12.8014 13.6743C12.5491 12.7775 12.048 11.9637 11.3456 11.3281C10.9147 10.9381 10.4242 10.6304 9.89685 10.4135C10.85 9.79175 11.4813 8.71619 11.4813 7.49585C11.4813 5.57629 9.91956 4.01465 8 4.01465C6.08044 4.01465 4.5188 5.57629 4.5188 7.49585C4.5188 8.71619 5.15015 9.79175 6.10315 10.4135C5.57593 10.6304 5.08533 10.938 4.65442 11.328C3.95215 11.9636 3.45093 12.7773 3.19861 13.6742C1.80884 12.3835 0.9375 10.5417 0.9375 8.5C0.9375 4.60571 4.10571 1.4375 8 1.4375C11.8943 1.4375 15.0625 4.60571 15.0625 8.5C15.0625 10.5419 14.1912 12.3837 12.8014 13.6743Z" fill="black"/>
</g>
<defs>
<clipPath id="clip0_1007_1622">
<rect width="16" height="16" fill="white" transform="translate(0 0.5)"/>
</clipPath>
</defs>
</svg>
